<svg width="25" height="25" viewBox="0 0 25 25" fill="none" xmlns="http://www.w3.org/2000/svg">
<path d="M24.2013 22.771L18.2512 16.5827C19.7811 14.7641 20.6193 12.4759 20.6193 10.0937C20.6193 4.52814 16.0912 0 10.5256 0C4.95996 0 0.431824 4.52814 0.431824 10.0937C0.431824 15.6593 4.95996 20.1875 10.5256 20.1875C12.615 20.1875 14.6061 19.5573 16.3084 18.361L22.3036 24.5963C22.5542 24.8565 22.8913 25 23.2525 25C23.5943 25 23.9186 24.8697 24.1648 24.6327C24.688 24.1293 24.7046 23.2946 24.2013 22.771ZM10.5256 2.63315C14.6394 2.63315 17.9862 5.97988 17.9862 10.0937C17.9862 14.2076 14.6394 17.5543 10.5256 17.5543C6.41171 17.5543 3.06497 14.2076 3.06497 10.0937C3.06497 5.97988 6.41171 2.63315 10.5256 2.63315Z" fill="black" fill-opacity="0.3"/>
</svg>
